G04 #@! TF.FileFunction,Copper,L2,Bot,Signal*
%FSLAX45Y45*%
G04 Gerber Fmt 4.5, Leading zero omitted, Abs format (unit mm)*
G04 Created by KiCad (PCBNEW 4.0.4-stable) date 10/22/16 14:43:45*
%MOMM*%
%LPD*%
G01*
G04 APERTURE LIST*
%ADD10C,0.100000*%
%ADD11R,1.500000X0.700000*%
%ADD12O,1.727200X2.032000*%
%ADD13R,1.500000X1.250000*%
%ADD14R,1.250000X1.500000*%
%ADD15R,2.032000X2.032000*%
%ADD16O,2.032000X2.032000*%
%ADD17R,1.727200X2.032000*%
%ADD18R,2.032000X1.727200*%
%ADD19O,2.032000X1.727200*%
%ADD20R,1.700000X2.000000*%
%ADD21R,2.000000X1.700000*%
%ADD22C,2.000000*%
%ADD23O,2.540000X2.032000*%
%ADD24C,1.998980*%
%ADD25O,1.600000X1.600000*%
%ADD26C,1.750000*%
%ADD27C,0.700000*%
%ADD28C,0.500000*%
G04 APERTURE END LIST*
D10*
D11*
X18148300Y-10289540D03*
X18148300Y-10162540D03*
X18148300Y-10035540D03*
X18148300Y-9908540D03*
X18148300Y-9781540D03*
X18148300Y-9654540D03*
X18148300Y-9527540D03*
X18752820Y-9527540D03*
X18752820Y-9654540D03*
X18752820Y-9781540D03*
X18752820Y-9908540D03*
X18752820Y-10035540D03*
X18752820Y-10162540D03*
X18752820Y-10289540D03*
D12*
X13893800Y-12382500D03*
X14147800Y-12382500D03*
X14401800Y-12382500D03*
X14655800Y-12382500D03*
X14909800Y-12382500D03*
X15163800Y-12382500D03*
X15417800Y-12382500D03*
X15671800Y-12382500D03*
X16179800Y-12382500D03*
X16433800Y-12382500D03*
X16687800Y-12382500D03*
X16941800Y-12382500D03*
X17195800Y-12382500D03*
X17449800Y-12382500D03*
X12979400Y-7556500D03*
X13233400Y-7556500D03*
X13487400Y-7556500D03*
X13741400Y-7556500D03*
X13995400Y-7556500D03*
X14249400Y-7556500D03*
X14503400Y-7556500D03*
X14757400Y-7556500D03*
X15011400Y-7556500D03*
X15265400Y-7556500D03*
X15671800Y-7556500D03*
X15925800Y-7556500D03*
X16179800Y-7556500D03*
X16433800Y-7556500D03*
X16687800Y-7556500D03*
X16941800Y-7556500D03*
X17195800Y-7556500D03*
X17449800Y-7556500D03*
D13*
X18345880Y-9222740D03*
X18595880Y-9222740D03*
X17639760Y-10035540D03*
X17889760Y-10035540D03*
X16943800Y-10977880D03*
X17193800Y-10977880D03*
D14*
X17891760Y-10255980D03*
X17891760Y-10505980D03*
D13*
X18312860Y-10604500D03*
X18562860Y-10604500D03*
D14*
X17914800Y-9306500D03*
X17914800Y-9056500D03*
D13*
X11941080Y-10551160D03*
X11691080Y-10551160D03*
X11746960Y-11889740D03*
X11996960Y-11889740D03*
D15*
X18425160Y-8404860D03*
D16*
X18425160Y-8150860D03*
D15*
X18003520Y-8150860D03*
D16*
X18003520Y-8404860D03*
D15*
X18003520Y-11711940D03*
D16*
X18003520Y-11965940D03*
D15*
X18425160Y-11711880D03*
D16*
X18425160Y-11965880D03*
D17*
X13390880Y-12382500D03*
D12*
X13136880Y-12382500D03*
X12882880Y-12382500D03*
X12628880Y-12382500D03*
X12374880Y-12382500D03*
X12120880Y-12382500D03*
X11866880Y-12382500D03*
D18*
X16896080Y-10259060D03*
D19*
X16896080Y-10005060D03*
X16896080Y-9751060D03*
D17*
X14178280Y-10055860D03*
D12*
X14432280Y-10055860D03*
X14686280Y-10055860D03*
X14940280Y-10055860D03*
X15194280Y-10055860D03*
X15448280Y-10055860D03*
X15702280Y-10055860D03*
X15956280Y-10055860D03*
D17*
X15956280Y-8204200D03*
D12*
X15702280Y-8204200D03*
X15448280Y-8204200D03*
X15194280Y-8204200D03*
X14940280Y-8204200D03*
X14686280Y-8204200D03*
X14432280Y-8204200D03*
X14178280Y-8204200D03*
D20*
X17218660Y-9749180D03*
X17218660Y-10149180D03*
D21*
X16942460Y-8895080D03*
X17342460Y-8895080D03*
X16939920Y-9301480D03*
X17339920Y-9301480D03*
X16942460Y-10734040D03*
X17342460Y-10734040D03*
X17511420Y-9779000D03*
X17911420Y-9779000D03*
D20*
X17655540Y-10685120D03*
X17655540Y-10285120D03*
D21*
X18164200Y-10947400D03*
X18564200Y-10947400D03*
D20*
X17678400Y-9053220D03*
X17678400Y-9453220D03*
D21*
X12747600Y-11889740D03*
X12347600Y-11889740D03*
D20*
X12750800Y-11113160D03*
X12750800Y-11513160D03*
D22*
X15026640Y-10768076D03*
X15026640Y-11528044D03*
D15*
X17835880Y-7556500D03*
D16*
X18089880Y-7556500D03*
D23*
X11747500Y-11221720D03*
X11747500Y-10967720D03*
X11747500Y-11475720D03*
D15*
X11615420Y-7556500D03*
D16*
X11361420Y-7556500D03*
D24*
X17343120Y-8211820D03*
X16327120Y-8211820D03*
X13189800Y-12069000D03*
X13189800Y-11053000D03*
X14187300Y-11041500D03*
X14187300Y-12057500D03*
X16344900Y-10924540D03*
X16344900Y-11940540D03*
X13731240Y-11107420D03*
X13731240Y-10091420D03*
X12954000Y-8887460D03*
X12954000Y-7871460D03*
D25*
X12578080Y-10058400D03*
X12578080Y-9804400D03*
X12578080Y-9550400D03*
X12578080Y-9296400D03*
X12578080Y-9042400D03*
X12578080Y-8788400D03*
X12578080Y-8534400D03*
X12578080Y-8280400D03*
X11816080Y-8280400D03*
X11816080Y-8534400D03*
X11816080Y-8788400D03*
X11816080Y-9042400D03*
X11816080Y-9296400D03*
X11816080Y-9550400D03*
X11816080Y-9804400D03*
X11816080Y-10058400D03*
D15*
X12447300Y-7556500D03*
D16*
X12193300Y-7556500D03*
D26*
X18427300Y-8689000D03*
X14719800Y-12061500D03*
X12402300Y-10661500D03*
X12849800Y-9406500D03*
X17734800Y-12126500D03*
X15922300Y-12129000D03*
X15702300Y-8541500D03*
X15702300Y-9674000D03*
X15699800Y-10354000D03*
X11362300Y-10424000D03*
X15717300Y-11411500D03*
X17914800Y-9531500D03*
X17909800Y-10804000D03*
X11362300Y-7974000D03*
X11939800Y-7541500D03*
X12257300Y-9741500D03*
X12892300Y-9144000D03*
X12812300Y-10279000D03*
X17724800Y-8554000D03*
X17372300Y-10406500D03*
X14272300Y-9679000D03*
X15312300Y-7329000D03*
X16687300Y-7869000D03*
D27*
X18425160Y-8686860D02*
X18425160Y-8404860D01*
X18427300Y-8689000D02*
X18425160Y-8686860D01*
X13189800Y-11053000D02*
X13676820Y-11053000D01*
X14715800Y-12057500D02*
X14713300Y-12057500D01*
X14719800Y-12061500D02*
X14715800Y-12057500D01*
X14187300Y-12057500D02*
X14713300Y-12057500D01*
X14713300Y-12057500D02*
X14909800Y-12254000D01*
X14909800Y-12254000D02*
X14909800Y-12382500D01*
X18425160Y-8478640D02*
X18425160Y-8404860D01*
X11747500Y-10967720D02*
X12096080Y-10967720D01*
X12096080Y-10967720D02*
X12402300Y-10661500D01*
X11747500Y-10949940D02*
X11941080Y-10756360D01*
X11941080Y-10756360D02*
X11941080Y-10551160D01*
X18425160Y-8404860D02*
X18425160Y-8150860D01*
X15922300Y-12129000D02*
X15922300Y-11086500D01*
X15699800Y-10864000D02*
X15699800Y-10354000D01*
X15922300Y-11086500D02*
X15699800Y-10864000D01*
X15163800Y-12382500D02*
X15417800Y-12382500D01*
X12578080Y-9296400D02*
X12739700Y-9296400D01*
X12739700Y-9296400D02*
X12849800Y-9406500D01*
X11816080Y-9296400D02*
X12578080Y-9296400D01*
X13390880Y-12382500D02*
X13390880Y-11895080D01*
X12604360Y-12146500D02*
X12347600Y-11889740D01*
X12834800Y-12146500D02*
X12604360Y-12146500D01*
X12964800Y-12016500D02*
X12834800Y-12146500D01*
X12964800Y-11934000D02*
X12964800Y-12016500D01*
X13102300Y-11796500D02*
X12964800Y-11934000D01*
X13292300Y-11796500D02*
X13102300Y-11796500D01*
X13390880Y-11895080D02*
X13292300Y-11796500D01*
X15417800Y-12296000D02*
X15584800Y-12129000D01*
X17895360Y-11965940D02*
X18003520Y-11965940D01*
X17734800Y-12126500D02*
X17895360Y-11965940D01*
X15584800Y-12129000D02*
X15922300Y-12129000D01*
X11691080Y-10551160D02*
X11691080Y-10422780D01*
X11612300Y-9500180D02*
X11816080Y-9296400D01*
X11612300Y-10344000D02*
X11612300Y-9500180D01*
X11691080Y-10422780D02*
X11612300Y-10344000D01*
X15702280Y-10055860D02*
X15702280Y-9674020D01*
X15702280Y-8541480D02*
X15702280Y-8204200D01*
X15702300Y-8541500D02*
X15702280Y-8541480D01*
X15702280Y-9674020D02*
X15702300Y-9674000D01*
X15702280Y-10351520D02*
X15702280Y-10055860D01*
X15699800Y-10354000D02*
X15702280Y-10351520D01*
X11691080Y-10551160D02*
X11489460Y-10551160D01*
X11489460Y-10551160D02*
X11362300Y-10424000D01*
X11615420Y-7556500D02*
X11615420Y-7541260D01*
X11615420Y-7541260D02*
X11818620Y-7338060D01*
X13741400Y-7437120D02*
X13741400Y-7556500D01*
X13642340Y-7338060D02*
X13741400Y-7437120D01*
X11818620Y-7338060D02*
X13642340Y-7338060D01*
X18425160Y-11965880D02*
X18425160Y-11711880D01*
X18003520Y-11965940D02*
X18003520Y-11711940D01*
X18003520Y-11711940D02*
X18425100Y-11711940D01*
X18425100Y-11711940D02*
X18425160Y-11711880D01*
X18003520Y-11965940D02*
X18425100Y-11965940D01*
X18425100Y-11965940D02*
X18425160Y-11965880D01*
X13390880Y-12382500D02*
X13390880Y-12357100D01*
X13390880Y-12357100D02*
X13919360Y-11828620D01*
X15163800Y-12247880D02*
X15163800Y-12382500D01*
X14744540Y-11828620D02*
X15163800Y-12247880D01*
X13919360Y-11828620D02*
X14744540Y-11828620D01*
X12347600Y-11889740D02*
X12347600Y-11892940D01*
X12578080Y-9296400D02*
X12578080Y-9042400D01*
X11816080Y-9296400D02*
X11816080Y-9042400D01*
X11691080Y-10551160D02*
X11691080Y-10521220D01*
X11615420Y-7556500D02*
X11615420Y-9095740D01*
X11615420Y-9095740D02*
X11816080Y-9296400D01*
X11691080Y-10551160D02*
X11684000Y-10551160D01*
X11684000Y-10551160D02*
X11336020Y-10899140D01*
X12139320Y-12098020D02*
X12347600Y-11889740D01*
X11336020Y-10899140D02*
X11336020Y-11772900D01*
X11336020Y-11772900D02*
X11661140Y-12098020D01*
X11661140Y-12098020D02*
X12139320Y-12098020D01*
X12347600Y-11889740D02*
X11996960Y-11889740D01*
X18425160Y-11711880D02*
X18425220Y-11711880D01*
X18425220Y-11711880D02*
X18808700Y-11328400D01*
X18587720Y-9974580D02*
X18653760Y-9908540D01*
X18587720Y-10380980D02*
X18587720Y-9974580D01*
X18656300Y-10449560D02*
X18587720Y-10380980D01*
X18757900Y-10449560D02*
X18656300Y-10449560D01*
X18808700Y-10500360D02*
X18757900Y-10449560D01*
X18808700Y-11328400D02*
X18808700Y-10500360D01*
X18595880Y-9222740D02*
X18595880Y-9865900D01*
X18638520Y-9908540D02*
X18653760Y-9908540D01*
X18653760Y-9908540D02*
X18752820Y-9908540D01*
X18595880Y-9865900D02*
X18638520Y-9908540D01*
X17193800Y-10977880D02*
X17269460Y-10977880D01*
X17269460Y-10977880D02*
X18003520Y-11711940D01*
X18425160Y-11711880D02*
X18430300Y-11711880D01*
X16896080Y-9751060D02*
X16896080Y-9345320D01*
X16896080Y-9345320D02*
X16939920Y-9301480D01*
X17218660Y-9749180D02*
X16897960Y-9749180D01*
X16897960Y-9749180D02*
X16896080Y-9751060D01*
D28*
X16896080Y-10005060D02*
X16758920Y-10005060D01*
X16433800Y-12174220D02*
X16433800Y-12382500D01*
X16525240Y-12082780D02*
X16433800Y-12174220D01*
X16525240Y-10238740D02*
X16525240Y-12082780D01*
X16758920Y-10005060D02*
X16525240Y-10238740D01*
X12374880Y-12382500D02*
X12374880Y-12491580D01*
X16941800Y-12444500D02*
X16941800Y-12382500D01*
X16684800Y-12701500D02*
X16941800Y-12444500D01*
X12584800Y-12701500D02*
X16684800Y-12701500D01*
X12374880Y-12491580D02*
X12584800Y-12701500D01*
X12882880Y-12382500D02*
X12882880Y-12519580D01*
X16687800Y-12473500D02*
X16687800Y-12382500D01*
X16567300Y-12594000D02*
X16687800Y-12473500D01*
X12957300Y-12594000D02*
X16567300Y-12594000D01*
X12882880Y-12519580D02*
X12957300Y-12594000D01*
X12882880Y-12382500D02*
X12882880Y-12461240D01*
X15026640Y-11528044D02*
X15600756Y-11528044D01*
X15600756Y-11528044D02*
X15717300Y-11411500D01*
X15030756Y-11528044D02*
X15026640Y-11528044D01*
D27*
X12750800Y-11113160D02*
X12750800Y-10647680D01*
X16327120Y-8214360D02*
X16327120Y-8211820D01*
X15303500Y-9237980D02*
X16327120Y-8214360D01*
X14160500Y-9237980D02*
X15303500Y-9237980D01*
X12750800Y-10647680D02*
X14160500Y-9237980D01*
X11746960Y-11889740D02*
X11746960Y-11889200D01*
X11746960Y-11889200D02*
X11508740Y-11650980D01*
X11508740Y-11650980D02*
X11508740Y-11336020D01*
X11508740Y-11336020D02*
X11623040Y-11221720D01*
X11623040Y-11221720D02*
X11747500Y-11221720D01*
X11747500Y-11221720D02*
X12642240Y-11221720D01*
X12642240Y-11221720D02*
X12750800Y-11113160D01*
D28*
X17889760Y-10035540D02*
X17884140Y-10035540D01*
X17884140Y-10035540D02*
X17627600Y-9779000D01*
X17627600Y-9779000D02*
X17511420Y-9779000D01*
X17889760Y-10035540D02*
X18148300Y-10035540D01*
X16942460Y-10734040D02*
X16942460Y-10976540D01*
X16942460Y-10976540D02*
X16943800Y-10977880D01*
X17342460Y-10734040D02*
X17342460Y-10706760D01*
X17342460Y-10706760D02*
X17655540Y-10393680D01*
X17655540Y-10393680D02*
X17655540Y-10285120D01*
X17891760Y-10255980D02*
X17684680Y-10255980D01*
X17684680Y-10255980D02*
X17655540Y-10285120D01*
X17891760Y-10255980D02*
X17953260Y-10255980D01*
X17953260Y-10255980D02*
X18046700Y-10162540D01*
X18046700Y-10162540D02*
X18148300Y-10162540D01*
X18312860Y-10604500D02*
X18312860Y-10454100D01*
X18312860Y-10454100D02*
X18148300Y-10289540D01*
X17891760Y-10505980D02*
X17834680Y-10505980D01*
X17834680Y-10505980D02*
X17655540Y-10685120D01*
X17891760Y-10505980D02*
X17931860Y-10505980D01*
X17931860Y-10505980D02*
X18148300Y-10289540D01*
X18122900Y-10289540D02*
X18148300Y-10289540D01*
X18564200Y-10947400D02*
X18564200Y-10605840D01*
X18564200Y-10605840D02*
X18562860Y-10604500D01*
X18148300Y-9654540D02*
X18037840Y-9654540D01*
X18037840Y-9654540D02*
X17914800Y-9531500D01*
X17678400Y-9453220D02*
X17768080Y-9453220D01*
X17768080Y-9453220D02*
X17914800Y-9306500D01*
X17914800Y-9306500D02*
X17914800Y-9531500D01*
X17909800Y-10804000D02*
X18053200Y-10947400D01*
X18053200Y-10947400D02*
X18164200Y-10947400D01*
X17725460Y-9406160D02*
X17678400Y-9453220D01*
X15448280Y-10055860D02*
X15448280Y-9583420D01*
X17835880Y-7599680D02*
X17835880Y-7556500D01*
X17609820Y-7825740D02*
X17835880Y-7599680D01*
X17205960Y-7825740D02*
X17609820Y-7825740D01*
X15448280Y-9583420D02*
X17205960Y-7825740D01*
X15956280Y-10055860D02*
X15956280Y-9306560D01*
X17746980Y-7960360D02*
X18089880Y-7617460D01*
X17302480Y-7960360D02*
X17746980Y-7960360D01*
X15956280Y-9306560D02*
X17302480Y-7960360D01*
X18089880Y-7617460D02*
X18089880Y-7556500D01*
X17339920Y-9301480D02*
X17231360Y-9301480D01*
X16942460Y-9012580D02*
X16942460Y-8895080D01*
X17231360Y-9301480D02*
X16942460Y-9012580D01*
X17339920Y-9301480D02*
X17339920Y-9292540D01*
X17911420Y-9779000D02*
X17838420Y-9779000D01*
X17838420Y-9779000D02*
X17680940Y-9621520D01*
X17339920Y-9445600D02*
X17339920Y-9301480D01*
X17515840Y-9621520D02*
X17339920Y-9445600D01*
X17680940Y-9621520D02*
X17515840Y-9621520D01*
X17911420Y-9779000D02*
X18145760Y-9779000D01*
X18145760Y-9779000D02*
X18148300Y-9781540D01*
X11747500Y-11475720D02*
X12713360Y-11475720D01*
X12713360Y-11475720D02*
X12750800Y-11513160D01*
X12750800Y-11513160D02*
X12750800Y-11886540D01*
X12750800Y-11886540D02*
X12747600Y-11889740D01*
D27*
X17342460Y-8895080D02*
X17396220Y-8895080D01*
X17396220Y-8895080D02*
X17584800Y-8706500D01*
X18345880Y-8932580D02*
X18345880Y-9222740D01*
X18119800Y-8706500D02*
X18345880Y-8932580D01*
X17584800Y-8706500D02*
X18119800Y-8706500D01*
X17343120Y-8211820D02*
X17343120Y-8894420D01*
X17343120Y-8894420D02*
X17342460Y-8895080D01*
X17342460Y-8895080D02*
X17342460Y-8893200D01*
X18345880Y-9222740D02*
X18345880Y-9356820D01*
X18359120Y-9908540D02*
X18148300Y-9908540D01*
X18501360Y-9766300D02*
X18359120Y-9908540D01*
X18501360Y-9512300D02*
X18501360Y-9766300D01*
X18345880Y-9356820D02*
X18501360Y-9512300D01*
X17342460Y-8895080D02*
X17348200Y-8895080D01*
X11362300Y-7974000D02*
X11361420Y-7973120D01*
X11361420Y-7973120D02*
X11361420Y-7556500D01*
D28*
X11954800Y-7556500D02*
X12193300Y-7556500D01*
X11939800Y-7541500D02*
X11954800Y-7556500D01*
X12448400Y-9550400D02*
X12578080Y-9550400D01*
X12257300Y-9741500D02*
X12448400Y-9550400D01*
X12578080Y-8788400D02*
X12611700Y-8788400D01*
X12611700Y-8788400D02*
X12759800Y-8936500D01*
X12759800Y-9011500D02*
X12892300Y-9144000D01*
X12759800Y-8936500D02*
X12759800Y-9011500D01*
X12447300Y-7556500D02*
X12447300Y-7844000D01*
X12409200Y-8788400D02*
X12578080Y-8788400D01*
X12332300Y-8711500D02*
X12409200Y-8788400D01*
X12332300Y-7959000D02*
X12332300Y-8711500D01*
X12447300Y-7844000D02*
X12332300Y-7959000D01*
X12578080Y-8534400D02*
X12814300Y-8534400D01*
X15925800Y-7729220D02*
X15925800Y-7556500D01*
X15867380Y-7787640D02*
X15925800Y-7729220D01*
X13561060Y-7787640D02*
X15867380Y-7787640D01*
X12814300Y-8534400D02*
X13561060Y-7787640D01*
X12578080Y-9804400D02*
X12733020Y-9804400D01*
X15946120Y-7886700D02*
X16179800Y-7653020D01*
X13693140Y-7886700D02*
X15946120Y-7886700D01*
X13213080Y-8366760D02*
X13693140Y-7886700D01*
X13213080Y-9324340D02*
X13213080Y-8366760D01*
X12733020Y-9804400D02*
X13213080Y-9324340D01*
X16179800Y-7653020D02*
X16179800Y-7556500D01*
X12578080Y-10058400D02*
X12862560Y-10058400D01*
X16433800Y-7739380D02*
X16433800Y-7556500D01*
X16184880Y-7988300D02*
X16433800Y-7739380D01*
X13804900Y-7988300D02*
X16184880Y-7988300D01*
X13388340Y-8404860D02*
X13804900Y-7988300D01*
X13388340Y-9532620D02*
X13388340Y-8404860D01*
X12862560Y-10058400D02*
X13388340Y-9532620D01*
X13189800Y-12069000D02*
X13189800Y-12329580D01*
X13189800Y-12329580D02*
X13136880Y-12382500D01*
X14178280Y-10055860D02*
X14178280Y-11032480D01*
X14178280Y-11032480D02*
X14312300Y-11166500D01*
X14312300Y-11166500D02*
X14839800Y-11166500D01*
X14839800Y-11166500D02*
X15026640Y-10979660D01*
X15026640Y-10979660D02*
X15026640Y-10768076D01*
X11816080Y-10058400D02*
X12191700Y-10058400D01*
X12412300Y-10279000D02*
X12812300Y-10279000D01*
X12191700Y-10058400D02*
X12412300Y-10279000D01*
X12578080Y-8280400D02*
X12578080Y-8247380D01*
X12578080Y-8247380D02*
X12954000Y-7871460D01*
X17218660Y-10149180D02*
X17218660Y-10252860D01*
X17873940Y-8404860D02*
X18003520Y-8404860D01*
X17724800Y-8554000D02*
X17873940Y-8404860D01*
X17218660Y-10252860D02*
X17372300Y-10406500D01*
X18003520Y-8404860D02*
X18003520Y-8150860D01*
X17218660Y-10149180D02*
X17218660Y-10218420D01*
X17218660Y-10149180D02*
X17353940Y-10149180D01*
X17467580Y-10035540D02*
X17639760Y-10035540D01*
X17353940Y-10149180D02*
X17467580Y-10035540D01*
X18148300Y-9527540D02*
X18148300Y-9115000D01*
X18089800Y-9056500D02*
X17914800Y-9056500D01*
X18148300Y-9115000D02*
X18089800Y-9056500D01*
X17678400Y-9053220D02*
X17911520Y-9053220D01*
X17911520Y-9053220D02*
X17914800Y-9056500D01*
X16179800Y-12382500D02*
X16179800Y-9309100D01*
X16179800Y-9309100D02*
X16802100Y-8686800D01*
X16802100Y-8686800D02*
X17061180Y-8686800D01*
X17061180Y-8686800D02*
X17150080Y-8775700D01*
X17150080Y-8775700D02*
X17150080Y-9019540D01*
X17150080Y-9019540D02*
X17241520Y-9110980D01*
X17241520Y-9110980D02*
X17620640Y-9110980D01*
X17620640Y-9110980D02*
X17678400Y-9053220D01*
X15265400Y-7556500D02*
X15265400Y-7375900D01*
X14432280Y-9838980D02*
X14432280Y-10055860D01*
X14272300Y-9679000D02*
X14432280Y-9838980D01*
X15265400Y-7375900D02*
X15312300Y-7329000D01*
X16687800Y-7868500D02*
X16687800Y-7556500D01*
X16687300Y-7869000D02*
X16687800Y-7868500D01*
X14686280Y-10055860D02*
X14686280Y-9989820D01*
X14686280Y-9989820D02*
X15260320Y-9415780D01*
X15260320Y-9415780D02*
X15379700Y-9415780D01*
X15379700Y-9415780D02*
X16941800Y-7853680D01*
X16941800Y-7853680D02*
X16941800Y-7556500D01*
M02*
