M48
;DRILL file {KiCad 4.0.4-stable} date 10/22/16 14:43:21
;FORMAT={2:4/ absolute / inch / keep zeros}
FMAT,2
INCH,TZ
T1C0.024
T2C0.031
T3C0.039
T4C0.040
T5C0.045
%
G90
G05
M72
T1
X001033Y018356
X001033Y008711
X003307Y020059
X004557Y011398
X005128Y007776
X006742Y009281
X006890Y012717
X007057Y013750
X012490Y011644
X014252Y002264
X016585Y020896
X018110Y008986
X018120Y016122
X018120Y011663
X018179Y004823
X018986Y001998
X021998Y018770
X024695Y008780
X026083Y016073
X026122Y002008
X026811Y007215
X026831Y012224
X028848Y015541
T2
X002820Y017150
X002820Y016150
X002820Y015150
X002820Y014150
X002820Y013150
X002820Y012150
X002820Y011150
X002820Y010150
X005820Y017150
X005820Y016150
X005820Y015150
X005820Y014150
X005820Y013150
X005820Y012150
X005820Y011150
X005820Y010150
T3
X007300Y018760
X007300Y014760
X008228Y006234
X008228Y002234
X010360Y010020
X010360Y006020
X012156Y006280
X012156Y002280
X015460Y007356
X015460Y004364
X020580Y017420
X020650Y006740
X020650Y002740
X024580Y017420
T4
X001030Y020000
X002030Y020000
X003020Y001000
X004020Y001000
X004305Y020000
X005020Y001000
X005305Y020000
X006020Y001000
X007020Y001000
X007400Y020000
X008020Y001000
X008400Y020000
X009020Y001000
X009400Y020000
X010400Y020000
X011000Y001000
X011400Y020000
X012000Y001000
X012120Y017450
X012120Y010160
X012400Y020000
X013000Y001000
X013120Y017450
X013120Y010160
X013400Y020000
X014000Y001000
X014120Y017450
X014120Y010160
X014400Y020000
X015000Y001000
X015120Y017450
X015120Y010160
X015400Y020000
X016000Y001000
X016120Y017450
X016120Y010160
X016400Y020000
X017000Y001000
X017120Y017450
X017120Y010160
X018000Y020000
X018000Y001000
X018120Y017450
X018120Y010160
X019000Y020000
X019120Y017450
X019120Y010160
X020000Y020000
X020000Y001000
X021000Y020000
X021000Y001000
X022000Y020000
X022000Y001000
X022820Y011360
X022820Y010360
X022820Y009360
X023000Y020000
X023000Y001000
X024000Y020000
X024000Y001000
X025000Y020000
X025000Y001000
X026520Y020000
X027180Y017660
X027180Y016660
X027180Y003640
X027180Y002640
X027520Y020000
X028840Y017660
X028840Y016660
X028840Y003640
X028840Y002640
T5
X002550Y006570
X002550Y005570
X002550Y004570
T0
M30
