G04 #@! TF.FileFunction,Copper,L1,Top,Signal*
%FSLAX45Y45*%
G04 Gerber Fmt 4.5, Leading zero omitted, Abs format (unit mm)*
G04 Created by KiCad (PCBNEW 4.0.4-stable) date 10/22/16 14:43:45*
%MOMM*%
%LPD*%
G01*
G04 APERTURE LIST*
%ADD10C,0.100000*%
%ADD11O,1.727200X2.032000*%
%ADD12R,2.032000X2.032000*%
%ADD13O,2.032000X2.032000*%
%ADD14R,1.727200X2.032000*%
%ADD15R,2.032000X1.727200*%
%ADD16O,2.032000X1.727200*%
%ADD17R,0.800100X0.800100*%
%ADD18R,1.700000X2.000000*%
%ADD19C,2.000000*%
%ADD20O,2.540000X2.032000*%
%ADD21R,1.800860X3.500120*%
%ADD22C,1.998980*%
%ADD23O,1.600000X1.600000*%
%ADD24C,1.750000*%
%ADD25C,0.700000*%
%ADD26C,0.500000*%
%ADD27C,0.200000*%
G04 APERTURE END LIST*
D10*
D11*
X13893800Y-12382500D03*
X14147800Y-12382500D03*
X14401800Y-12382500D03*
X14655800Y-12382500D03*
X14909800Y-12382500D03*
X15163800Y-12382500D03*
X15417800Y-12382500D03*
X15671800Y-12382500D03*
X16179800Y-12382500D03*
X16433800Y-12382500D03*
X16687800Y-12382500D03*
X16941800Y-12382500D03*
X17195800Y-12382500D03*
X17449800Y-12382500D03*
X12979400Y-7556500D03*
X13233400Y-7556500D03*
X13487400Y-7556500D03*
X13741400Y-7556500D03*
X13995400Y-7556500D03*
X14249400Y-7556500D03*
X14503400Y-7556500D03*
X14757400Y-7556500D03*
X15011400Y-7556500D03*
X15265400Y-7556500D03*
X15671800Y-7556500D03*
X15925800Y-7556500D03*
X16179800Y-7556500D03*
X16433800Y-7556500D03*
X16687800Y-7556500D03*
X16941800Y-7556500D03*
X17195800Y-7556500D03*
X17449800Y-7556500D03*
D12*
X18425160Y-8404860D03*
D13*
X18425160Y-8150860D03*
D12*
X18003520Y-8150860D03*
D13*
X18003520Y-8404860D03*
D12*
X18003520Y-11711940D03*
D13*
X18003520Y-11965940D03*
D12*
X18425160Y-11711880D03*
D13*
X18425160Y-11965880D03*
D14*
X13390880Y-12382500D03*
D11*
X13136880Y-12382500D03*
X12882880Y-12382500D03*
X12628880Y-12382500D03*
X12374880Y-12382500D03*
X12120880Y-12382500D03*
X11866880Y-12382500D03*
D15*
X16896080Y-10259060D03*
D16*
X16896080Y-10005060D03*
X16896080Y-9751060D03*
D14*
X14178280Y-10055860D03*
D11*
X14432280Y-10055860D03*
X14686280Y-10055860D03*
X14940280Y-10055860D03*
X15194280Y-10055860D03*
X15448280Y-10055860D03*
X15702280Y-10055860D03*
X15956280Y-10055860D03*
D14*
X15956280Y-8204200D03*
D11*
X15702280Y-8204200D03*
X15448280Y-8204200D03*
X15194280Y-8204200D03*
X14940280Y-8204200D03*
X14686280Y-8204200D03*
X14432280Y-8204200D03*
X14178280Y-8204200D03*
D17*
X15916656Y-10763000D03*
X15916656Y-10573000D03*
X15716758Y-10668000D03*
D18*
X16294100Y-10036200D03*
X16294100Y-10436200D03*
D19*
X15026640Y-10768076D03*
X15026640Y-11528044D03*
D12*
X17835880Y-7556500D03*
D13*
X18089880Y-7556500D03*
D20*
X11747500Y-11221720D03*
X11747500Y-10967720D03*
X11747500Y-11475720D03*
D21*
X11358880Y-8497824D03*
X11358880Y-8997696D03*
X11358880Y-9407144D03*
X11358880Y-9907016D03*
X13411200Y-8160004D03*
X13411200Y-8659876D03*
X13411200Y-9066784D03*
X13411200Y-9566656D03*
D12*
X11615420Y-7556500D03*
D13*
X11361420Y-7556500D03*
D22*
X17343120Y-8211820D03*
X16327120Y-8211820D03*
X13189800Y-12069000D03*
X13189800Y-11053000D03*
X14187300Y-11041500D03*
X14187300Y-12057500D03*
X16344900Y-10924540D03*
X16344900Y-11940540D03*
X13731240Y-11107420D03*
X13731240Y-10091420D03*
X12954000Y-8887460D03*
X12954000Y-7871460D03*
D23*
X12578080Y-10058400D03*
X12578080Y-9804400D03*
X12578080Y-9550400D03*
X12578080Y-9296400D03*
X12578080Y-9042400D03*
X12578080Y-8788400D03*
X12578080Y-8534400D03*
X12578080Y-8280400D03*
X11816080Y-8280400D03*
X11816080Y-8534400D03*
X11816080Y-8788400D03*
X11816080Y-9042400D03*
X11816080Y-9296400D03*
X11816080Y-9550400D03*
X11816080Y-9804400D03*
X11816080Y-10058400D03*
D12*
X12447300Y-7556500D03*
D13*
X12193300Y-7556500D03*
D24*
X18427300Y-8689000D03*
X14719800Y-12061500D03*
X12402300Y-10661500D03*
X12849800Y-9406500D03*
X17734800Y-12126500D03*
X15922300Y-12129000D03*
X15702300Y-8541500D03*
X15702300Y-9674000D03*
X15699800Y-10354000D03*
X11362300Y-10424000D03*
X15717300Y-11411500D03*
X17914800Y-9531500D03*
X17909800Y-10804000D03*
X11362300Y-7974000D03*
X11939800Y-7541500D03*
X12257300Y-9741500D03*
X12892300Y-9144000D03*
X12812300Y-10279000D03*
X17724800Y-8554000D03*
X17372300Y-10406500D03*
X14272300Y-9679000D03*
X15312300Y-7329000D03*
X16687300Y-7869000D03*
D25*
X16344900Y-11940540D02*
X17295760Y-11940540D01*
X18427300Y-10809000D02*
X18427300Y-8689000D01*
X17295760Y-11940540D02*
X18427300Y-10809000D01*
X13731240Y-11107420D02*
X13731240Y-11601440D01*
X13731240Y-11601440D02*
X14187300Y-12057500D01*
D26*
X16344900Y-11940540D02*
X14840760Y-11940540D01*
X14840760Y-11940540D02*
X14719800Y-12061500D01*
D25*
X16344900Y-11940540D02*
X16365760Y-11940540D01*
X12793300Y-10656500D02*
X13189800Y-11053000D01*
X12407300Y-10656500D02*
X12793300Y-10656500D01*
X12402300Y-10661500D02*
X12407300Y-10656500D01*
X16344900Y-11940540D02*
X16390620Y-11940540D01*
X13009956Y-9566656D02*
X13411200Y-9566656D01*
X12849800Y-9406500D02*
X13009956Y-9566656D01*
X15924800Y-12126500D02*
X17734800Y-12126500D01*
X15922300Y-12129000D02*
X15924800Y-12126500D01*
X15702300Y-9674000D02*
X15702300Y-8541500D01*
X15916656Y-10573000D02*
X15916656Y-10570856D01*
X15916656Y-10570856D02*
X15699800Y-10354000D01*
X11358880Y-10420580D02*
X11358880Y-9907016D01*
X11362300Y-10424000D02*
X11358880Y-10420580D01*
X15916656Y-10573000D02*
X15916656Y-10572144D01*
X15916656Y-10572144D02*
X16022300Y-10466500D01*
X16792740Y-9751060D02*
X16896080Y-9751060D01*
X16669800Y-9874000D02*
X16792740Y-9751060D01*
X16669800Y-10029000D02*
X16669800Y-9874000D01*
X16464800Y-10234000D02*
X16669800Y-10029000D01*
X16104800Y-10234000D02*
X16464800Y-10234000D01*
X16022300Y-10316500D02*
X16104800Y-10234000D01*
X16022300Y-10466500D02*
X16022300Y-10316500D01*
X15916656Y-10573000D02*
X15916656Y-10564876D01*
D26*
X12374880Y-12382500D02*
X12374880Y-12425680D01*
X15916656Y-10763000D02*
X16067020Y-10763000D01*
X16067020Y-10763000D02*
X16294100Y-10535920D01*
X16294100Y-10535920D02*
X16294100Y-10436200D01*
X15916656Y-10763000D02*
X15916656Y-10768076D01*
X15716758Y-11410958D02*
X15716758Y-10668000D01*
X15717300Y-11411500D02*
X15716758Y-11410958D01*
X17914800Y-9531500D02*
X17909800Y-9536500D01*
X17909800Y-9536500D02*
X17909800Y-10804000D01*
D25*
X11358880Y-8497824D02*
X11358880Y-7977420D01*
X11358880Y-7977420D02*
X11362300Y-7974000D01*
X11358880Y-8497824D02*
X11358880Y-8367420D01*
X11358880Y-8367420D02*
X11714800Y-8011500D01*
X12808304Y-8160004D02*
X13239496Y-8160004D01*
X12659800Y-8011500D02*
X12808304Y-8160004D01*
X11714800Y-8011500D02*
X12659800Y-8011500D01*
D27*
X11358880Y-8497824D02*
X11416284Y-8497824D01*
X11358880Y-8497824D02*
X11403584Y-8497824D01*
D25*
X12954000Y-8887460D02*
X12954000Y-8445500D01*
X13239496Y-8160004D02*
X13411200Y-8160004D01*
X12954000Y-8445500D02*
X13239496Y-8160004D01*
D26*
X11358880Y-8997696D02*
X11233496Y-8997696D01*
X11757300Y-7359000D02*
X11939800Y-7541500D01*
X11209800Y-7359000D02*
X11757300Y-7359000D01*
X11144800Y-7424000D02*
X11209800Y-7359000D01*
X11144800Y-8909000D02*
X11144800Y-7424000D01*
X11233496Y-8997696D02*
X11144800Y-8909000D01*
X11358880Y-9407144D02*
X11482944Y-9407144D01*
X12257300Y-10184000D02*
X12257300Y-9741500D01*
X12119800Y-10321500D02*
X12257300Y-10184000D01*
X11799800Y-10321500D02*
X12119800Y-10321500D01*
X11617300Y-10139000D02*
X11799800Y-10321500D01*
X11617300Y-9541500D02*
X11617300Y-10139000D01*
X11482944Y-9407144D02*
X11617300Y-9541500D01*
X11358880Y-9407144D02*
X11358880Y-8997696D01*
X13303984Y-9174000D02*
X13411200Y-9066784D01*
X12922300Y-9174000D02*
X13303984Y-9174000D01*
X12892300Y-9144000D02*
X12922300Y-9174000D01*
X13411200Y-8659876D02*
X13411200Y-9066784D01*
X16344900Y-10924540D02*
X16344900Y-10810240D01*
X16344900Y-10810240D02*
X16896080Y-10259060D01*
X13538660Y-10284000D02*
X13731240Y-10091420D01*
X12817300Y-10284000D02*
X13538660Y-10284000D01*
X12812300Y-10279000D02*
X12817300Y-10284000D01*
X12580620Y-8277860D02*
X12578080Y-8280400D01*
X17724800Y-10229000D02*
X17724800Y-8554000D01*
X17537300Y-10416500D02*
X17724800Y-10229000D01*
X17382300Y-10416500D02*
X17537300Y-10416500D01*
X17372300Y-10406500D02*
X17382300Y-10416500D01*
X13829800Y-9236500D02*
X14272300Y-9679000D01*
X13829800Y-8104000D02*
X13829800Y-9236500D01*
X14039800Y-7894000D02*
X13829800Y-8104000D01*
X15344800Y-7894000D02*
X14039800Y-7894000D01*
X15472300Y-7766500D02*
X15344800Y-7894000D01*
X15472300Y-7404000D02*
X15472300Y-7766500D01*
X15404800Y-7336500D02*
X15472300Y-7404000D01*
X15319800Y-7336500D02*
X15404800Y-7336500D01*
X15312300Y-7329000D02*
X15319800Y-7336500D01*
X16294100Y-10036200D02*
X16294100Y-9612200D01*
X16687300Y-9219000D02*
X16687300Y-7869000D01*
X16294100Y-9612200D02*
X16687300Y-9219000D01*
M02*
