G04 #@! TF.FileFunction,Legend,Bot*
%FSLAX45Y45*%
G04 Gerber Fmt 4.5, Leading zero omitted, Abs format (unit mm)*
G04 Created by KiCad (PCBNEW 4.0.4-stable) date 10/22/16 14:43:45*
%MOMM*%
%LPD*%
G01*
G04 APERTURE LIST*
%ADD10C,0.100000*%
%ADD11C,0.150000*%
G04 APERTURE END LIST*
D10*
D11*
X18395582Y-10284300D02*
G75*
G03X18395582Y-10284300I-52302J0D01*
G01*
X18249100Y-10365740D02*
X18249100Y-9471660D01*
X18249100Y-9471660D02*
X18654520Y-9471660D01*
X18654520Y-9471660D02*
X18654520Y-10365740D01*
X18654520Y-10365740D02*
X18249100Y-10365740D01*
X18520880Y-9307740D02*
X18420880Y-9307740D01*
X18420880Y-9137740D02*
X18520880Y-9137740D01*
X17814760Y-10120540D02*
X17714760Y-10120540D01*
X17714760Y-9950540D02*
X17814760Y-9950540D01*
X17118800Y-11062880D02*
X17018800Y-11062880D01*
X17018800Y-10892880D02*
X17118800Y-10892880D01*
X17806760Y-10430980D02*
X17806760Y-10330980D01*
X17976760Y-10330980D02*
X17976760Y-10430980D01*
X18487860Y-10689500D02*
X18387860Y-10689500D01*
X18387860Y-10519500D02*
X18487860Y-10519500D01*
X17999800Y-9131500D02*
X17999800Y-9231500D01*
X17829800Y-9231500D02*
X17829800Y-9131500D01*
X11766080Y-10466160D02*
X11866080Y-10466160D01*
X11866080Y-10636160D02*
X11766080Y-10636160D01*
X11921960Y-11974740D02*
X11821960Y-11974740D01*
X11821960Y-11804740D02*
X11921960Y-11804740D01*
X17326160Y-10049180D02*
X17326160Y-9849180D01*
X17111160Y-9849180D02*
X17111160Y-10049180D01*
X17242460Y-8787580D02*
X17042460Y-8787580D01*
X17042460Y-9002580D02*
X17242460Y-9002580D01*
X17239920Y-9193980D02*
X17039920Y-9193980D01*
X17039920Y-9408980D02*
X17239920Y-9408980D01*
X17242460Y-10626540D02*
X17042460Y-10626540D01*
X17042460Y-10841540D02*
X17242460Y-10841540D01*
X17811420Y-9671500D02*
X17611420Y-9671500D01*
X17611420Y-9886500D02*
X17811420Y-9886500D01*
X17548040Y-10385120D02*
X17548040Y-10585120D01*
X17763040Y-10585120D02*
X17763040Y-10385120D01*
X18464200Y-10839900D02*
X18264200Y-10839900D01*
X18264200Y-11054900D02*
X18464200Y-11054900D01*
X17785900Y-9353220D02*
X17785900Y-9153220D01*
X17570900Y-9153220D02*
X17570900Y-9353220D01*
X12447600Y-11997240D02*
X12647600Y-11997240D01*
X12647600Y-11782240D02*
X12447600Y-11782240D01*
X12858300Y-11413160D02*
X12858300Y-11213160D01*
X12643300Y-11213160D02*
X12643300Y-11413160D01*
X18636348Y-9444238D02*
X18683967Y-9444238D01*
X18683967Y-9344238D01*
X18603014Y-9444238D02*
X18603014Y-9344238D01*
X18569681Y-9415667D01*
X18536348Y-9344238D01*
X18536348Y-9444238D01*
X18498252Y-9344238D02*
X18436348Y-9344238D01*
X18469681Y-9382333D01*
X18455395Y-9382333D01*
X18445871Y-9387095D01*
X18441110Y-9391857D01*
X18436348Y-9401381D01*
X18436348Y-9425191D01*
X18441110Y-9434714D01*
X18445871Y-9439476D01*
X18455395Y-9444238D01*
X18483967Y-9444238D01*
X18493491Y-9439476D01*
X18498252Y-9434714D01*
X18398252Y-9353762D02*
X18393491Y-9349000D01*
X18383967Y-9344238D01*
X18360157Y-9344238D01*
X18350633Y-9349000D01*
X18345871Y-9353762D01*
X18341110Y-9363286D01*
X18341110Y-9372810D01*
X18345871Y-9387095D01*
X18403014Y-9444238D01*
X18341110Y-9444238D01*
X18255395Y-9377571D02*
X18255395Y-9444238D01*
X18279205Y-9339476D02*
X18303014Y-9410905D01*
X18241110Y-9410905D01*
X18487547Y-9083194D02*
X18492309Y-9087956D01*
X18506594Y-9092718D01*
X18516118Y-9092718D01*
X18530404Y-9087956D01*
X18539928Y-9078432D01*
X18544690Y-9068909D01*
X18549451Y-9049861D01*
X18549451Y-9035575D01*
X18544690Y-9016528D01*
X18539928Y-9007004D01*
X18530404Y-8997480D01*
X18516118Y-8992718D01*
X18506594Y-8992718D01*
X18492309Y-8997480D01*
X18487547Y-9002242D01*
X18392309Y-9092718D02*
X18449451Y-9092718D01*
X18420880Y-9092718D02*
X18420880Y-8992718D01*
X18430404Y-9007004D01*
X18439928Y-9016528D01*
X18449451Y-9021290D01*
X17453767Y-10078874D02*
X17458529Y-10083636D01*
X17472814Y-10088398D01*
X17482338Y-10088398D01*
X17496624Y-10083636D01*
X17506148Y-10074112D01*
X17510910Y-10064589D01*
X17515671Y-10045541D01*
X17515671Y-10031255D01*
X17510910Y-10012208D01*
X17506148Y-10002684D01*
X17496624Y-9993160D01*
X17482338Y-9988398D01*
X17472814Y-9988398D01*
X17458529Y-9993160D01*
X17453767Y-9997922D01*
X17415671Y-9997922D02*
X17410910Y-9993160D01*
X17401386Y-9988398D01*
X17377576Y-9988398D01*
X17368052Y-9993160D01*
X17363290Y-9997922D01*
X17358529Y-10007446D01*
X17358529Y-10016970D01*
X17363290Y-10031255D01*
X17420433Y-10088398D01*
X17358529Y-10088398D01*
X17085467Y-11188854D02*
X17090229Y-11193616D01*
X17104514Y-11198378D01*
X17114038Y-11198378D01*
X17128324Y-11193616D01*
X17137848Y-11184092D01*
X17142610Y-11174569D01*
X17147371Y-11155521D01*
X17147371Y-11141235D01*
X17142610Y-11122188D01*
X17137848Y-11112664D01*
X17128324Y-11103140D01*
X17114038Y-11098378D01*
X17104514Y-11098378D01*
X17090229Y-11103140D01*
X17085467Y-11107902D01*
X17052133Y-11098378D02*
X16990229Y-11098378D01*
X17023562Y-11136473D01*
X17009276Y-11136473D01*
X16999752Y-11141235D01*
X16994990Y-11145997D01*
X16990229Y-11155521D01*
X16990229Y-11179331D01*
X16994990Y-11188854D01*
X16999752Y-11193616D01*
X17009276Y-11198378D01*
X17037848Y-11198378D01*
X17047371Y-11193616D01*
X17052133Y-11188854D01*
X17918587Y-10729114D02*
X17923349Y-10733876D01*
X17937634Y-10738638D01*
X17947158Y-10738638D01*
X17961444Y-10733876D01*
X17970968Y-10724352D01*
X17975730Y-10714829D01*
X17980491Y-10695781D01*
X17980491Y-10681495D01*
X17975730Y-10662448D01*
X17970968Y-10652924D01*
X17961444Y-10643400D01*
X17947158Y-10638638D01*
X17937634Y-10638638D01*
X17923349Y-10643400D01*
X17918587Y-10648162D01*
X17832872Y-10671971D02*
X17832872Y-10738638D01*
X17856682Y-10633876D02*
X17880491Y-10705305D01*
X17818587Y-10705305D01*
X18457067Y-10810394D02*
X18461829Y-10815156D01*
X18476114Y-10819918D01*
X18485638Y-10819918D01*
X18499924Y-10815156D01*
X18509448Y-10805632D01*
X18514210Y-10796109D01*
X18518971Y-10777061D01*
X18518971Y-10762775D01*
X18514210Y-10743728D01*
X18509448Y-10734204D01*
X18499924Y-10724680D01*
X18485638Y-10719918D01*
X18476114Y-10719918D01*
X18461829Y-10724680D01*
X18457067Y-10729442D01*
X18366590Y-10719918D02*
X18414210Y-10719918D01*
X18418971Y-10767537D01*
X18414210Y-10762775D01*
X18404686Y-10758013D01*
X18380876Y-10758013D01*
X18371352Y-10762775D01*
X18366590Y-10767537D01*
X18361829Y-10777061D01*
X18361829Y-10800871D01*
X18366590Y-10810394D01*
X18371352Y-10815156D01*
X18380876Y-10819918D01*
X18404686Y-10819918D01*
X18414210Y-10815156D01*
X18418971Y-10810394D01*
X17941627Y-8914954D02*
X17946389Y-8919716D01*
X17960674Y-8924478D01*
X17970198Y-8924478D01*
X17984484Y-8919716D01*
X17994008Y-8910192D01*
X17998770Y-8900669D01*
X18003531Y-8881621D01*
X18003531Y-8867335D01*
X17998770Y-8848288D01*
X17994008Y-8838764D01*
X17984484Y-8829240D01*
X17970198Y-8824478D01*
X17960674Y-8824478D01*
X17946389Y-8829240D01*
X17941627Y-8834002D01*
X17855912Y-8824478D02*
X17874960Y-8824478D01*
X17884484Y-8829240D01*
X17889246Y-8834002D01*
X17898770Y-8848288D01*
X17903531Y-8867335D01*
X17903531Y-8905431D01*
X17898770Y-8914954D01*
X17894008Y-8919716D01*
X17884484Y-8924478D01*
X17865436Y-8924478D01*
X17855912Y-8919716D01*
X17851150Y-8914954D01*
X17846389Y-8905431D01*
X17846389Y-8881621D01*
X17851150Y-8872097D01*
X17855912Y-8867335D01*
X17865436Y-8862573D01*
X17884484Y-8862573D01*
X17894008Y-8867335D01*
X17898770Y-8872097D01*
X17903531Y-8881621D01*
X11836467Y-10424714D02*
X11841228Y-10429476D01*
X11855514Y-10434238D01*
X11865038Y-10434238D01*
X11879324Y-10429476D01*
X11888848Y-10419952D01*
X11893609Y-10410429D01*
X11898371Y-10391381D01*
X11898371Y-10377095D01*
X11893609Y-10358048D01*
X11888848Y-10348524D01*
X11879324Y-10339000D01*
X11865038Y-10334238D01*
X11855514Y-10334238D01*
X11841228Y-10339000D01*
X11836467Y-10343762D01*
X11803133Y-10334238D02*
X11736467Y-10334238D01*
X11779324Y-10434238D01*
X11896247Y-11765434D02*
X11901008Y-11770196D01*
X11915294Y-11774958D01*
X11924818Y-11774958D01*
X11939104Y-11770196D01*
X11948628Y-11760672D01*
X11953389Y-11751149D01*
X11958151Y-11732101D01*
X11958151Y-11717815D01*
X11953389Y-11698768D01*
X11948628Y-11689244D01*
X11939104Y-11679720D01*
X11924818Y-11674958D01*
X11915294Y-11674958D01*
X11901008Y-11679720D01*
X11896247Y-11684482D01*
X11839104Y-11717815D02*
X11848628Y-11713053D01*
X11853389Y-11708291D01*
X11858151Y-11698768D01*
X11858151Y-11694006D01*
X11853389Y-11684482D01*
X11848628Y-11679720D01*
X11839104Y-11674958D01*
X11820056Y-11674958D01*
X11810532Y-11679720D01*
X11805770Y-11684482D01*
X11801008Y-11694006D01*
X11801008Y-11698768D01*
X11805770Y-11708291D01*
X11810532Y-11713053D01*
X11820056Y-11717815D01*
X11839104Y-11717815D01*
X11848628Y-11722577D01*
X11853389Y-11727339D01*
X11858151Y-11736863D01*
X11858151Y-11755910D01*
X11853389Y-11765434D01*
X11848628Y-11770196D01*
X11839104Y-11774958D01*
X11820056Y-11774958D01*
X11810532Y-11770196D01*
X11805770Y-11765434D01*
X11801008Y-11755910D01*
X11801008Y-11736863D01*
X11805770Y-11727339D01*
X11810532Y-11722577D01*
X11820056Y-11717815D01*
X17235327Y-9603258D02*
X17268660Y-9555639D01*
X17292470Y-9603258D02*
X17292470Y-9503258D01*
X17254374Y-9503258D01*
X17244850Y-9508020D01*
X17240089Y-9512782D01*
X17235327Y-9522306D01*
X17235327Y-9536591D01*
X17240089Y-9546115D01*
X17244850Y-9550877D01*
X17254374Y-9555639D01*
X17292470Y-9555639D01*
X17140089Y-9603258D02*
X17197231Y-9603258D01*
X17168660Y-9603258D02*
X17168660Y-9503258D01*
X17178184Y-9517544D01*
X17187708Y-9527068D01*
X17197231Y-9531830D01*
X17159127Y-8754898D02*
X17192460Y-8707279D01*
X17216270Y-8754898D02*
X17216270Y-8654898D01*
X17178174Y-8654898D01*
X17168650Y-8659660D01*
X17163889Y-8664422D01*
X17159127Y-8673946D01*
X17159127Y-8688231D01*
X17163889Y-8697755D01*
X17168650Y-8702517D01*
X17178174Y-8707279D01*
X17216270Y-8707279D01*
X17121031Y-8664422D02*
X17116270Y-8659660D01*
X17106746Y-8654898D01*
X17082936Y-8654898D01*
X17073412Y-8659660D01*
X17068650Y-8664422D01*
X17063889Y-8673946D01*
X17063889Y-8683470D01*
X17068650Y-8697755D01*
X17125793Y-8754898D01*
X17063889Y-8754898D01*
X17156587Y-9153678D02*
X17189920Y-9106059D01*
X17213730Y-9153678D02*
X17213730Y-9053678D01*
X17175634Y-9053678D01*
X17166110Y-9058440D01*
X17161349Y-9063202D01*
X17156587Y-9072726D01*
X17156587Y-9087011D01*
X17161349Y-9096535D01*
X17166110Y-9101297D01*
X17175634Y-9106059D01*
X17213730Y-9106059D01*
X17123253Y-9053678D02*
X17061349Y-9053678D01*
X17094682Y-9091773D01*
X17080396Y-9091773D01*
X17070872Y-9096535D01*
X17066110Y-9101297D01*
X17061349Y-9110821D01*
X17061349Y-9134631D01*
X17066110Y-9144154D01*
X17070872Y-9148916D01*
X17080396Y-9153678D01*
X17108968Y-9153678D01*
X17118491Y-9148916D01*
X17123253Y-9144154D01*
X17159127Y-10591318D02*
X17192460Y-10543699D01*
X17216270Y-10591318D02*
X17216270Y-10491318D01*
X17178174Y-10491318D01*
X17168650Y-10496080D01*
X17163889Y-10500842D01*
X17159127Y-10510366D01*
X17159127Y-10524651D01*
X17163889Y-10534175D01*
X17168650Y-10538937D01*
X17178174Y-10543699D01*
X17216270Y-10543699D01*
X17073412Y-10524651D02*
X17073412Y-10591318D01*
X17097222Y-10486556D02*
X17121031Y-10557985D01*
X17059127Y-10557985D01*
X17466467Y-9623578D02*
X17499800Y-9575959D01*
X17523610Y-9623578D02*
X17523610Y-9523578D01*
X17485514Y-9523578D01*
X17475990Y-9528340D01*
X17471229Y-9533102D01*
X17466467Y-9542626D01*
X17466467Y-9556911D01*
X17471229Y-9566435D01*
X17475990Y-9571197D01*
X17485514Y-9575959D01*
X17523610Y-9575959D01*
X17375990Y-9523578D02*
X17423610Y-9523578D01*
X17428371Y-9571197D01*
X17423610Y-9566435D01*
X17414086Y-9561673D01*
X17390276Y-9561673D01*
X17380752Y-9566435D01*
X17375990Y-9571197D01*
X17371229Y-9580721D01*
X17371229Y-9604531D01*
X17375990Y-9614054D01*
X17380752Y-9618816D01*
X17390276Y-9623578D01*
X17414086Y-9623578D01*
X17423610Y-9618816D01*
X17428371Y-9614054D01*
X17677287Y-10931678D02*
X17710620Y-10884059D01*
X17734430Y-10931678D02*
X17734430Y-10831678D01*
X17696334Y-10831678D01*
X17686810Y-10836440D01*
X17682049Y-10841202D01*
X17677287Y-10850726D01*
X17677287Y-10865011D01*
X17682049Y-10874535D01*
X17686810Y-10879297D01*
X17696334Y-10884059D01*
X17734430Y-10884059D01*
X17591572Y-10831678D02*
X17610620Y-10831678D01*
X17620144Y-10836440D01*
X17624906Y-10841202D01*
X17634430Y-10855488D01*
X17639191Y-10874535D01*
X17639191Y-10912631D01*
X17634430Y-10922154D01*
X17629668Y-10926916D01*
X17620144Y-10931678D01*
X17601096Y-10931678D01*
X17591572Y-10926916D01*
X17586810Y-10922154D01*
X17582049Y-10912631D01*
X17582049Y-10888821D01*
X17586810Y-10879297D01*
X17591572Y-10874535D01*
X17601096Y-10869773D01*
X17620144Y-10869773D01*
X17629668Y-10874535D01*
X17634430Y-10879297D01*
X17639191Y-10888821D01*
X18380867Y-11222638D02*
X18414200Y-11175019D01*
X18438010Y-11222638D02*
X18438010Y-11122638D01*
X18399914Y-11122638D01*
X18390390Y-11127400D01*
X18385629Y-11132162D01*
X18380867Y-11141686D01*
X18380867Y-11155971D01*
X18385629Y-11165495D01*
X18390390Y-11170257D01*
X18399914Y-11175019D01*
X18438010Y-11175019D01*
X18347533Y-11122638D02*
X18280867Y-11122638D01*
X18323724Y-11222638D01*
X17695067Y-8897138D02*
X17728400Y-8849519D01*
X17752210Y-8897138D02*
X17752210Y-8797138D01*
X17714114Y-8797138D01*
X17704590Y-8801900D01*
X17699829Y-8806662D01*
X17695067Y-8816186D01*
X17695067Y-8830471D01*
X17699829Y-8839995D01*
X17704590Y-8844757D01*
X17714114Y-8849519D01*
X17752210Y-8849519D01*
X17637924Y-8839995D02*
X17647448Y-8835233D01*
X17652210Y-8830471D01*
X17656971Y-8820948D01*
X17656971Y-8816186D01*
X17652210Y-8806662D01*
X17647448Y-8801900D01*
X17637924Y-8797138D01*
X17618876Y-8797138D01*
X17609352Y-8801900D01*
X17604590Y-8806662D01*
X17599829Y-8816186D01*
X17599829Y-8820948D01*
X17604590Y-8830471D01*
X17609352Y-8835233D01*
X17618876Y-8839995D01*
X17637924Y-8839995D01*
X17647448Y-8844757D01*
X17652210Y-8849519D01*
X17656971Y-8859043D01*
X17656971Y-8878091D01*
X17652210Y-8887614D01*
X17647448Y-8892376D01*
X17637924Y-8897138D01*
X17618876Y-8897138D01*
X17609352Y-8892376D01*
X17604590Y-8887614D01*
X17599829Y-8878091D01*
X17599829Y-8859043D01*
X17604590Y-8849519D01*
X17609352Y-8844757D01*
X17618876Y-8839995D01*
X12561727Y-11752098D02*
X12595060Y-11704479D01*
X12618869Y-11752098D02*
X12618869Y-11652098D01*
X12580774Y-11652098D01*
X12571250Y-11656860D01*
X12566488Y-11661622D01*
X12561727Y-11671146D01*
X12561727Y-11685431D01*
X12566488Y-11694955D01*
X12571250Y-11699717D01*
X12580774Y-11704479D01*
X12618869Y-11704479D01*
X12514108Y-11752098D02*
X12495060Y-11752098D01*
X12485536Y-11747336D01*
X12480774Y-11742574D01*
X12471250Y-11728289D01*
X12466488Y-11709241D01*
X12466488Y-11671146D01*
X12471250Y-11661622D01*
X12476012Y-11656860D01*
X12485536Y-11652098D01*
X12504584Y-11652098D01*
X12514108Y-11656860D01*
X12518869Y-11661622D01*
X12523631Y-11671146D01*
X12523631Y-11694955D01*
X12518869Y-11704479D01*
X12514108Y-11709241D01*
X12504584Y-11714003D01*
X12485536Y-11714003D01*
X12476012Y-11709241D01*
X12471250Y-11704479D01*
X12466488Y-11694955D01*
X12814086Y-10956738D02*
X12847419Y-10909119D01*
X12871229Y-10956738D02*
X12871229Y-10856738D01*
X12833133Y-10856738D01*
X12823609Y-10861500D01*
X12818848Y-10866262D01*
X12814086Y-10875786D01*
X12814086Y-10890071D01*
X12818848Y-10899595D01*
X12823609Y-10904357D01*
X12833133Y-10909119D01*
X12871229Y-10909119D01*
X12718848Y-10956738D02*
X12775990Y-10956738D01*
X12747419Y-10956738D02*
X12747419Y-10856738D01*
X12756943Y-10871024D01*
X12766467Y-10880548D01*
X12775990Y-10885310D01*
X12656943Y-10856738D02*
X12647419Y-10856738D01*
X12637895Y-10861500D01*
X12633133Y-10866262D01*
X12628371Y-10875786D01*
X12623609Y-10894833D01*
X12623609Y-10918643D01*
X12628371Y-10937691D01*
X12633133Y-10947214D01*
X12637895Y-10951976D01*
X12647419Y-10956738D01*
X12656943Y-10956738D01*
X12666467Y-10951976D01*
X12671229Y-10947214D01*
X12675990Y-10937691D01*
X12680752Y-10918643D01*
X12680752Y-10894833D01*
X12675990Y-10875786D01*
X12671229Y-10866262D01*
X12666467Y-10861500D01*
X12656943Y-10856738D01*
M02*
